<svg width="5" height="8" viewBox="0 0 5 8" fill="none" xmlns="http://www.w3.org/2000/svg">
<path d="M0.41483 0.480963C0.36139 0.534402 0.33467 0.595858 0.33467 0.665331C0.33467 0.734803 0.36139 0.79626 0.41483 0.8497L3.56513 4L0.414831 7.1503C0.36139 7.20374 0.33467 7.2652 0.33467 7.33467C0.33467 7.40414 0.36139 7.4656 0.414831 7.51904L0.815632 7.91984C0.869072 7.97328 0.930529 8 1 8C1.06947 8 1.13093 7.97328 1.18437 7.91984L4.91984 4.18437C4.97328 4.13093 5 4.06947 5 4C5 3.93053 4.97328 3.86907 4.91984 3.81563L1.18437 0.0801603C1.13093 0.02672 1.06947 1.71809e-07 1 1.74846e-07C0.930528 1.77882e-07 0.869072 0.02672 0.815632 0.0801603L0.41483 0.480963Z" fill="#FA7846"/>
</svg>
