<svg width="214" height="53" viewBox="0 0 214 53" fill="none" xmlns="http://www.w3.org/2000/svg">
<path d="M213.497 16.0562C213.528 15.7818 213.331 15.5342 213.056 15.5032L208.585 14.9975C208.31 14.9664 208.063 15.1637 208.032 15.4381C208.001 15.7125 208.198 15.9601 208.472 15.9911L212.447 16.4406L211.997 20.4153C211.966 20.6897 212.164 20.9373 212.438 20.9683C212.712 20.9994 212.96 20.8021 212.991 20.5277L213.497 16.0562ZM0.402392 1.74372C0.966815 8.0329 2.49152 12.2064 4.86092 14.7421C7.25303 17.3021 10.429 18.1137 14.0852 17.8544C17.7244 17.5964 21.8947 16.2756 26.3679 14.513C30.8379 12.7516 35.6868 10.5165 40.639 8.42131C50.598 4.20778 61.0547 0.527453 70.5208 1.88026C79.9094 3.222 88.4511 9.54286 94.5321 25.6763L95.4679 25.3236C89.2989 8.95699 80.5137 2.29819 70.6623 0.890322C60.8885 -0.506471 50.1922 3.29365 40.2494 7.50035C35.2506 9.61526 30.4613 11.8252 26.0013 13.5826C21.5446 15.3387 17.4932 16.6103 14.0145 16.8569C10.5527 17.1024 7.71444 16.3312 5.59157 14.0594C3.44599 11.7632 1.95496 7.85605 1.39839 1.65433L0.402392 1.74372ZM94.5321 25.6763C100.716 42.0813 111.291 49.741 123.686 51.9298C136.033 54.11 150.122 50.8522 163.372 45.5897C176.634 40.3227 189.118 33.0221 198.281 27.0437C202.864 24.0536 206.62 21.392 209.23 19.4774C210.536 18.5201 211.555 17.7493 212.248 17.2176C212.595 16.9517 212.86 16.7455 213.039 16.6055C213.129 16.5356 213.196 16.4822 213.242 16.4462C213.265 16.4281 213.282 16.4145 213.294 16.4053C213.299 16.4007 213.304 16.3972 213.307 16.3948C213.308 16.3936 213.31 16.3927 213.31 16.3921C213.311 16.3914 213.312 16.391 213 16C212.688 15.609 212.688 15.6092 212.688 15.6096C212.687 15.6102 212.686 15.6109 212.685 15.612C212.682 15.6142 212.678 15.6174 212.672 15.6218C212.661 15.6306 212.645 15.6438 212.622 15.6613C212.578 15.6964 212.511 15.7489 212.423 15.8179C212.247 15.9559 211.984 16.1602 211.64 16.424C210.952 16.9518 209.938 17.7182 208.639 18.671C206.04 20.5767 202.3 23.2276 197.735 26.2062C188.601 32.1653 176.179 39.4273 163.003 44.6603C149.816 49.8977 135.936 53.0774 123.86 50.9451C111.834 48.8213 101.534 41.4185 95.4679 25.3236L94.5321 25.6763Z" fill="#FA7846"/>
</svg>
