<svg width="130" height="50" viewBox="0 0 130 50" fill="none" xmlns="http://www.w3.org/2000/svg">
<path d="M22.4539 5.37207H47.044V44.6268H5.31787V6.0168V6.01779L10.7294 13.6756L22.4539 5.37207Z" fill="#D8D1C1"/>
<path d="M25.4559 7.60291C25.4559 11.6411 24.1412 15.3822 21.9034 18.4499C20.8521 19.8904 19.5976 21.1828 18.1794 22.2857C15.6842 24.2288 12.683 25.5903 9.39587 26.157C9.12268 26.2044 8.84752 26.2459 8.57137 26.2815L5.96768 24.6158L5.84144 24.5358V7.66116L10.605 14.4027L22.6155 5.89678H25.377C25.4283 6.45957 25.4559 7.02828 25.4559 7.60291ZM4.79405 23.8654L2.25545 22.2412V26.1166C1.87575 26.0455 1.499 25.9655 1.12817 25.8737V1.12891H1.2268L4.79504 6.17916C4.79405 6.17916 4.79405 23.8654 4.79405 23.8654ZM24.0988 4.84921L25.1235 4.12352C25.159 4.3042 25.1906 4.48587 25.2202 4.66853L25.2488 4.84921H24.0988Z" fill="#66C0FF"/>
<path d="M36.8884 10.4283C36.8884 12.9766 38.9517 15.0432 41.4981 15.0432C44.0436 15.0432 46.1079 12.9776 46.1079 10.4283C46.1079 7.87998 44.0446 5.81348 41.4981 5.81348C38.9517 5.81348 36.8884 7.879 36.8884 10.4283Z" fill="#CB6362"/>
<path d="M26.378 1.95447L26.164 1.65234H2.8728L10.8535 12.9485L22.9074 4.41295V4.41098L24.9184 2.98624L24.9193 2.98723L26.378 1.95447Z" fill="#F2EFEA"/>
<path d="M15.2127 30.5338C15.7768 27.8897 16.8676 25.442 18.3736 23.3054C19.4358 21.7958 20.7061 20.4412 22.1401 19.284C25.5249 16.553 29.8288 14.9189 34.5145 14.9189C35.0924 14.9189 35.6635 14.9436 36.2276 14.992C40.3166 15.3435 44.0495 16.944 47.0438 19.4114C48.177 20.3444 49.2046 21.4008 50.106 22.562V47.7412H34.0342L36.6684 44.3398L35.5372 43.54L26.3937 37.688L26.5801 37.6772L26.8316 37.6614L27.0841 37.6426L27.3366 37.6219L27.5891 37.5982L27.8416 37.5725L28.094 37.5439L28.3465 37.5133L28.599 37.4787L28.8505 37.4422L29.101 37.4027L29.3505 37.3603L29.599 37.3148L29.7115 37.2931L29.8249 37.2694L29.9393 37.2437L30.0537 37.2161L30.1691 37.1875L30.2845 37.1569L30.4009 37.1243L30.5172 37.0907L30.6336 37.0552L30.751 37.0186L30.8683 36.9801L30.9857 36.9406L31.1041 36.9002L31.2224 36.8577L31.3407 36.8142L31.4591 36.7698L31.5775 36.7244L31.6958 36.678L31.8141 36.6306L31.9325 36.5812L32.0499 36.5319L32.1672 36.4805L32.2846 36.4292L32.401 36.3769L32.5173 36.3235L32.6337 36.2692L32.7501 36.2139L32.8645 36.1587L32.9789 36.1024L33.0933 36.0451L33.2057 35.9878L33.3182 35.9296L33.4296 35.8713L33.5401 35.8121L33.6505 35.7529L33.759 35.6936L33.8675 35.6334L33.974 35.5732L34.0796 35.5119L34.1841 35.4507L34.2877 35.3895L34.3902 35.3283L34.4918 35.2671L34.5924 35.2059L34.691 35.1437L34.7887 35.0825L34.8843 35.0212L34.979 34.96L35.0717 34.8988L35.1634 34.8376L35.2532 34.7764L35.341 34.7161L35.4278 34.6559L35.5126 34.5957L35.5954 34.5365L35.6763 34.4772L35.7552 34.419L35.8321 34.3607L35.9071 34.3034L35.98 34.2462L36.0511 34.1899L36.1201 34.1346L36.1872 34.0793L36.2513 34.026C37.4308 33.0229 40.4162 29.3697 40.1864 29.2492L40.1736 29.2423L40.1558 29.2324L40.1341 29.2206L40.1075 29.2058L40.0769 29.189L40.0424 29.1702L40.0039 29.1495L39.9615 29.1268L39.9152 29.1021L39.8649 29.0755L39.8106 29.0468L39.7534 29.0162L39.6923 28.9846L39.6282 28.9511L39.5611 28.9155L39.4901 28.879L39.4161 28.8405L39.3392 28.801L39.2593 28.7605L39.1765 28.718L39.0917 28.6746L39.0039 28.6302L38.9131 28.5848L38.8204 28.5383L38.7248 28.491L38.6271 28.4436L38.5275 28.3952L38.4259 28.3458L38.3224 28.2964L38.2169 28.2461L38.1094 28.1957L37.9999 28.1444L37.8894 28.0931L37.7799 28.0407L37.6665 27.9894L37.5511 27.9371L37.4348 27.8857L37.3174 27.8334L37.199 27.782L37.0797 27.7297L36.9594 27.6784L36.8381 27.627L36.7158 27.5767L36.5935 27.5263L36.4702 27.477L36.3459 27.4276L36.2217 27.3792L36.0974 27.3318L35.9731 27.2854L35.8489 27.24L35.7246 27.1946L35.6003 27.1501L35.4761 27.1077L35.3518 27.0662L35.2285 27.0257L35.1062 26.9862L34.9839 26.9487L34.8616 26.9122L34.7403 26.8776L34.62 26.8441L34.5007 26.8125L34.3823 26.7829L34.266 26.7552L34.1496 26.7285C34.0411 26.7049 33.9336 26.6821 33.8261 26.6614C33.7196 26.6407 33.6131 26.6199 33.5075 26.6012C33.402 26.5824 33.2975 26.5646 33.1939 26.5489C33.0894 26.5321 32.9868 26.5173 32.8832 26.5024C32.7807 26.4886 32.6791 26.4758 32.5775 26.4639C32.4759 26.4521 32.3753 26.4412 32.2757 26.4323C32.1761 26.4225 32.0765 26.4146 31.9779 26.4077C31.8792 26.4008 31.7816 26.3948 31.684 26.3889C31.5863 26.384 31.4907 26.38 31.394 26.3771C31.2983 26.3741 31.2027 26.3721 31.108 26.3721C31.0133 26.3711 30.9196 26.3711 30.8259 26.3731C30.7322 26.3741 30.6395 26.3771 30.5478 26.38C30.4561 26.383 30.3644 26.3879 30.2736 26.3929C30.1829 26.3988 30.0932 26.4047 30.0034 26.4116C29.9137 26.4185 29.8249 26.4274 29.7371 26.4363C29.6493 26.4452 29.5616 26.4551 29.4748 26.4669C29.388 26.4788 29.3022 26.4906 29.2164 26.5034C29.1306 26.5163 29.0458 26.5301 28.9619 26.5459C28.7933 26.5755 28.6276 26.6091 28.4639 26.6456C28.382 26.6634 28.3011 26.6831 28.2203 26.7029C28.1394 26.7226 28.0595 26.7434 27.9796 26.7651C27.9007 26.7868 27.8218 26.8095 27.7429 26.8322C27.665 26.8549 27.5871 26.8796 27.5102 26.9043C27.4332 26.929 27.3563 26.9546 27.2814 26.9813C27.2054 27.008 27.1305 27.0346 27.0555 27.0623C26.9806 27.0899 26.9066 27.1185 26.8336 27.1482C26.7596 27.1778 26.6876 27.2074 26.6147 27.238C26.5427 27.2686 26.4707 27.3002 26.3987 27.3328C26.2557 27.398 26.1166 27.4651 25.9775 27.5342C25.9085 27.5688 25.8405 27.6053 25.7724 27.6409C25.7044 27.6774 25.6373 27.7139 25.5702 27.7514C25.5032 27.789 25.4371 27.8265 25.372 27.865C25.3069 27.9035 25.2418 27.943 25.1767 27.9825C25.1116 28.022 25.0485 28.0624 24.9844 28.1029C24.9213 28.1434 24.8582 28.1849 24.795 28.2273L24.6086 28.3547C24.5475 28.3981 24.4863 28.4416 24.4252 28.485L24.2457 28.6183C24.1865 28.6628 24.1274 28.7082 24.0692 28.7546L23.8956 28.8938L23.725 29.036L23.5573 29.1801L23.3926 29.3262L23.2299 29.4753L23.0701 29.6264L22.9133 29.7794L22.7525 29.9364L22.6016 30.0934L22.4527 30.2524L22.3067 30.4123L22.1637 30.5742L22.0237 30.7372L21.8856 30.9011L21.7505 31.0659L21.6174 31.2318L21.4872 31.3987L21.359 31.5665L21.2337 31.7354L21.1104 31.9042L20.9901 32.074L20.8718 32.2438L20.7554 32.4137C20.497 32.7958 20.2455 33.2006 20.0078 33.6064L15.5628 30.7618L15.2097 30.5357L15.2127 30.5338Z" fill="#EB8E51"/>
<path d="M36.6687 44.3409L34.0344 47.7423H2.25562V22.2412L5.96686 24.6158L10.0509 27.2293L15.566 30.759L20.011 33.6035C18.9567 35.4005 18.1677 37.2123 18.1677 37.2123C18.1677 37.2123 22.1068 37.9222 26.395 37.6892L35.5384 43.5411L36.6687 44.3409Z" fill="#D89795"/>
<path d="M36.2535 34.0246C34.9102 35.166 31.9959 36.8612 29.6022 37.3144C24.3091 38.3186 18.1687 37.2108 18.1687 37.2108C18.1687 37.2108 19.3532 34.4906 20.7596 32.4103C23.2124 28.7818 27.2047 25.2067 34.1459 26.7242C36.6095 27.2633 39.9598 29.1244 40.1896 29.2459C40.4174 29.3683 37.433 33.0215 36.2535 34.0246ZM23.8593 32.9553C23.3228 30.1246 25.1661 27.3986 27.9759 26.8654C30.7857 26.3322 33.4989 28.1944 34.0354 31.0251C34.5719 33.8548 32.7286 36.5818 29.9188 37.115C27.109 37.6482 24.3959 35.786 23.8593 32.9553Z" fill="#FFEEC0"/>
<path d="M23.8592 32.9554C23.3227 30.1257 25.166 27.3986 27.9758 26.8665C30.7856 26.3333 33.4988 28.1954 34.0353 31.0261C34.5718 33.8559 32.7285 36.5829 29.9187 37.1151C27.1089 37.6483 24.3957 35.7861 23.8592 32.9554Z" fill="#66C0FF"/>
<path d="M25.9786 7.60277C25.9786 9.64164 25.6522 11.6084 25.0466 13.4567C24.4204 15.3692 23.4943 17.1543 22.3236 18.7588C21.7841 19.4973 21.1924 20.1993 20.5513 20.8588C19.9083 21.5204 19.2228 22.1355 18.4989 22.6992C17.205 23.7073 15.7759 24.5633 14.2443 25.2387C12.7471 25.8982 11.1504 26.385 9.48268 26.6733L9.244 26.7138L7.87115 25.835C8.35737 25.7876 8.83669 25.7235 9.30712 25.6415C10.8891 25.369 12.4029 24.9079 13.8231 24.281C15.2749 23.6412 16.629 22.8296 17.8579 21.8718C18.5522 21.3318 19.2021 20.7502 19.8037 20.1302C20.4083 19.5072 20.9695 18.8417 21.4823 18.1407C22.5889 16.6251 23.4627 14.9397 24.0535 13.1339C24.6245 11.3912 24.9322 9.53204 24.9322 7.60277C24.9322 7.117 24.9135 6.63913 24.875 6.17014C24.8356 5.68141 24.7784 5.20847 24.7054 4.75034C24.6689 4.52325 24.6285 4.30406 24.586 4.09179L24.5446 3.89333L25.2192 3.41546L25.4668 3.2407C25.5171 3.45495 25.5654 3.67118 25.6088 3.88741C25.6561 4.12536 25.6995 4.35935 25.736 4.58743C25.8169 5.09196 25.879 5.59255 25.9185 6.08918C25.9579 6.59174 25.9786 7.09627 25.9786 7.60277ZM2.25547 26.6466C1.83335 26.5706 1.41716 26.4817 1.00491 26.381L0.604492 26.2823V0.604492H24.6354L24.7636 0.945125L24.8326 1.12976H1.86491L2.23476 1.65404H1.65189V25.4598C1.85209 25.5043 2.05329 25.5457 2.25645 25.5843L2.25547 26.6466Z" fill="#1E2533"/>
<path d="M37.4114 10.4282C37.4114 11.5577 37.869 12.5806 38.6087 13.3211C39.3474 14.0616 40.3691 14.5197 41.4984 14.5197C42.6267 14.5197 43.6484 14.0616 44.3871 13.3211C45.1268 12.5816 45.5844 11.5587 45.5844 10.4282C45.5844 9.29866 45.1268 8.27577 44.3871 7.53527C43.6484 6.79575 42.6267 6.33762 41.4984 6.33762C40.3701 6.33762 39.3484 6.79575 38.6087 7.53527C37.869 8.27577 37.4114 9.29866 37.4114 10.4282ZM37.868 14.0616C36.939 13.1315 36.365 11.847 36.365 10.4272C36.365 9.00838 36.94 7.72385 37.868 6.79377C38.7971 5.8637 40.0802 5.28906 41.4984 5.28906C42.9156 5.28906 44.1987 5.86468 45.1278 6.79377C46.0568 7.72385 46.6308 9.00838 46.6308 10.4272C46.6308 11.846 46.0558 13.1315 45.1278 14.0616C44.1987 14.9917 42.9156 15.5663 41.4984 15.5663C40.0812 15.5663 38.7971 14.9917 37.868 14.0616Z" fill="#1E2533"/>
<path d="M51.7572 24.1751V45.1808L51.7553 45.2095C51.7434 45.4099 51.7375 45.5294 51.7306 45.6449C51.5541 48.8696 51.5255 49.3958 48.2432 49.3958H20.5751L20.4203 49.2467C19.9301 48.7708 19.4616 48.2693 19.0188 47.743H20.4114C20.6017 47.9484 20.797 48.1498 20.9962 48.3482H48.2422C50.5363 48.3482 50.557 47.9622 50.6871 45.5936L50.7098 45.1828H50.7088V24.3242C50.1812 23.4978 49.5875 22.7109 48.9375 21.9714C48.2501 21.1904 47.5055 20.4687 46.7116 19.815C45.2352 18.5986 43.5704 17.5975 41.7685 16.8609C40.0209 16.1471 38.1441 15.683 36.1834 15.5142C35.8875 15.4885 35.6104 15.4707 35.352 15.4589C35.0986 15.448 34.8185 15.4421 34.5127 15.4421C32.271 15.4421 30.122 15.8252 28.1258 16.5292C26.0527 17.2598 24.1423 18.337 22.4657 19.6906C21.7675 20.2544 21.1087 20.8656 20.4942 21.5212C19.8837 22.1738 19.3166 22.8699 18.7989 23.6045C18.0148 24.7172 17.3481 25.9129 16.8136 27.1737C16.3204 28.3378 15.9388 29.5621 15.6813 30.8328L15.564 30.7578L14.7415 30.2315C15.0087 29.0348 15.3825 27.8777 15.852 26.7689C16.4181 25.431 17.1213 24.1702 17.9438 23.0032C18.4882 22.2301 19.0869 21.4955 19.7328 20.8053C20.3788 20.1152 21.0732 19.4705 21.8109 18.8761C23.5802 17.4494 25.5931 16.3129 27.7777 15.5428C29.8862 14.7993 32.1536 14.3945 34.5117 14.3945C34.7839 14.3945 35.0788 14.4014 35.3954 14.4153C35.7081 14.4291 35.999 14.4469 36.2682 14.4706C38.3364 14.6483 40.3168 15.138 42.1601 15.8913C44.0566 16.6664 45.8121 17.7229 47.3734 19.0094C48.2196 19.7064 49.0056 20.4657 49.7216 21.2803C50.4366 22.0938 51.0905 22.9686 51.6734 23.8977L51.7553 24.028L51.7572 24.1751Z" fill="#1E2533"/>
<path d="M51.2335 50H0V0H52.3608V50H51.2335ZM2.25554 47.742H50.1052V2.25805H2.25554V47.742Z" fill="#1E2533"/>
<path d="M24.0545 6.05105C24.0111 5.47642 23.9648 4.90178 23.9293 4.32715L23.2073 4.8376L22.0219 5.67783C21.9943 5.97305 21.9775 6.2653 21.9587 6.54768C21.8651 7.95859 21.6964 9.36259 21.6185 10.7755C21.5307 12.3454 21.4863 13.9172 21.4262 15.4881C21.4045 16.0509 21.3749 16.6126 21.3414 17.1754C21.2802 16.0805 21.2131 14.9865 21.1323 13.8925C21.0189 12.3542 20.8847 10.8179 20.7309 9.28361C20.6569 8.5431 20.5701 7.80457 20.4942 7.06406C20.4843 6.96928 20.4764 6.8735 20.4695 6.77773L18.5552 8.13335C18.1035 10.2601 18.1627 12.5014 18.0483 14.6577C17.9773 15.9886 17.9161 17.3206 17.8579 18.6525C17.7593 17.6217 17.6666 16.5909 17.5838 15.5592C17.4772 14.2262 17.3352 12.8785 17.3293 11.5417C17.3254 10.6817 17.4053 9.81381 17.3983 8.95186L15.7779 10.0992C15.7671 10.1811 15.7572 10.2631 15.7454 10.345C15.6349 11.1359 15.5176 11.9247 15.414 12.7166C15.2099 14.2736 15.0304 15.8346 14.8607 17.3956C14.6448 19.3841 14.4475 21.3746 14.2542 23.3661C14.265 22.9919 14.2739 22.6167 14.2808 22.2435C14.3114 20.645 14.3193 19.0484 14.3972 17.4499C14.4751 15.8642 14.5816 14.2815 14.6655 12.6968C14.698 12.0738 14.7276 11.4508 14.7493 10.8278L12.5411 12.3918C12.0608 14.7673 11.757 17.1823 11.3724 19.5757C11.3842 19.4424 11.3961 19.3101 11.4109 19.1768C11.5736 17.6197 11.8182 16.0736 12.0154 14.5215C12.0953 13.8886 12.1663 13.2537 12.2215 12.6179L10.7284 13.6753L10.2944 13.0612C10.1741 13.7089 10.0696 14.3595 9.9305 14.9924C9.45907 17.134 8.99948 19.2775 8.54877 21.424C8.24994 22.8438 7.9373 24.2636 7.64142 25.6873L8.46987 26.2175C9.19081 22.4913 10.0124 18.7809 10.8221 15.0744C10.9039 14.7012 10.9818 14.3279 11.0588 13.9547C10.8803 15.8366 10.5656 17.7096 10.3457 19.5855C10.0942 21.7281 10.0636 23.8755 10.0853 26.025C10.469 25.945 10.8487 25.8542 11.2235 25.7525C11.2235 25.7347 11.2225 25.7169 11.2225 25.6992C11.5016 23.9387 11.8547 22.1901 12.1831 20.4386C12.5756 18.3395 12.8498 16.2217 13.1871 14.1137C13.3192 13.2873 13.4613 12.4619 13.623 11.6394C13.553 13.7049 13.407 15.7695 13.2975 17.834C13.1674 20.2668 13.1151 22.7105 13.0816 25.1492C13.8124 24.8718 14.5215 24.5529 15.2059 24.1954C15.5314 20.8148 15.8559 17.4331 16.2553 14.0604C16.2977 14.714 16.3569 15.3676 16.4072 16.0173C16.5886 18.3859 16.8382 20.7476 17.0295 23.1153C17.423 22.8527 17.8067 22.5752 18.1775 22.2859C18.3895 22.121 18.5966 21.9522 18.8008 21.7794C18.8353 20.9777 18.8846 20.175 18.9172 19.3772C19.0424 16.3066 19.1578 13.231 19.3324 10.1633C19.359 9.70421 19.3906 9.24115 19.4369 8.77809C19.504 9.39123 19.5681 10.0044 19.6283 10.6175C19.7791 12.1518 19.9103 13.6891 20.0208 15.2274C20.1312 16.7667 20.2151 18.3069 20.295 19.8482C20.3038 20.0131 20.3127 20.1779 20.3216 20.3428C20.8887 19.7455 21.4163 19.1136 21.9015 18.4501C22.0663 18.224 22.226 17.993 22.3809 17.7599C22.4262 17.0836 22.4736 16.4073 22.5051 15.729C22.6363 12.9072 22.6649 10.0764 22.9341 7.26252C22.9351 7.27733 22.9361 7.29115 22.9371 7.30497C23.0318 8.54113 23.1442 9.7753 23.3198 11.0026C23.5072 12.3167 23.7478 13.6259 23.9184 14.9411C24.2823 14.1117 24.5861 13.2527 24.8248 12.3671C24.6916 11.5229 24.5496 10.6797 24.4323 9.83356C24.2577 8.57864 24.1492 7.31583 24.0545 6.05105ZM7.57436 25.6439C7.79232 21.4319 8.14736 17.2209 8.46592 13.0177C8.52312 12.2683 8.59808 11.5377 8.69966 10.8031L7.44713 9.02986C6.54472 11.3847 6.22517 13.9389 5.89379 16.4241C5.56044 18.928 5.19257 21.425 4.89966 23.9328L5.7646 24.4867C5.89083 23.3207 6.03285 22.1566 6.18572 20.9945C6.39777 19.3851 6.64334 17.7817 6.86722 16.1743C7.06545 14.7495 7.24692 13.3209 7.51025 11.907C7.58126 11.5298 7.6572 11.1536 7.74103 10.7794C7.60394 11.597 7.46587 12.3997 7.40176 13.23C7.21339 15.6717 7.03883 18.1144 6.86623 20.5581C6.76268 22.0371 6.65518 23.5171 6.5605 24.9972L7.57436 25.6439Z" fill="#1E2533"/>
<path d="M37.0819 44.6603L33.9348 48.7242H1.34033V21.0361C6.17491 24.1305 11.0105 27.2248 15.845 30.3191L20.2782 33.1567C20.0948 33.4549 19.9182 33.758 19.7496 34.0572L15.2849 31.1998C10.9858 28.4481 6.68677 25.6964 2.38674 22.9457V47.6766H33.4249L35.9211 44.4539L35.2366 43.9701L35.2376 43.9691L25.4826 37.7262C26.0695 37.7114 26.6671 37.6807 27.2678 37.6294L35.8185 43.1013L35.8392 43.1141L37.4162 44.2298L37.0819 44.6603Z" fill="#1E2533"/>
<path d="M5.31789 4.84863H47.5667V45.151H4.79419V4.84863H5.31789ZM46.5193 5.89719H5.84158V44.1034H46.5203C46.5193 44.1034 46.5193 5.89719 46.5193 5.89719Z" fill="#1E2533"/>
<path d="M51.7573 1.12877V37.8727L35.8018 15.2942H35.7999L28.6259 5.14034L28.6269 5.13936L26.9789 2.80725L25.5202 3.841V3.84298L23.5093 5.26672L23.5083 5.26574L10.6052 14.4036L0.855225 0.604492H25.4226H30.0915H51.7563C51.7573 0.604492 51.7573 1.12877 51.7573 1.12877ZM26.3783 1.95518L26.1643 1.65305H2.87308L10.8538 12.9482L22.9077 4.41267V4.4107L24.9186 2.98596L24.9196 2.98695L26.3783 1.95518ZM28.6111 1.65305L27.831 2.20497L29.479 4.53708H29.481L36.6549 14.6909L36.654 14.6919L50.7099 34.5839V1.65305H28.6111Z" fill="#1E2533"/>
<path d="M26.8497 32.3839L26.8507 32.3829C26.7462 31.8261 26.8754 31.2791 27.1683 30.8456C27.4632 30.4092 27.9238 30.0874 28.482 29.9807L28.4859 29.9788V29.9797C29.0402 29.8751 29.5856 30.0064 30.0176 30.3036C30.4515 30.6008 30.772 31.0648 30.8786 31.6247L30.8805 31.6325C30.9831 32.1884 30.8549 32.7334 30.562 33.1659C30.2671 33.6023 29.8055 33.9252 29.2483 34.0308L29.2404 34.0328V34.0338C28.6871 34.1365 28.1437 34.0051 27.7117 33.7089C27.2788 33.4108 26.9572 32.9467 26.8507 32.3879L26.8497 32.3839ZM36.5909 34.4248C35.8246 35.0764 34.5671 35.8998 33.1844 36.5841C32.0512 37.1449 30.8243 37.6158 29.697 37.8291C24.3082 38.851 18.0948 37.7304 18.0771 37.7274L17.4222 37.6109L17.6885 37.0027C17.6895 36.9997 17.796 36.7569 17.9824 36.359L16.434 35.6333C16.3689 35.6027 16.3374 35.5888 16.2831 35.5493C16.1983 35.4871 16.1322 35.3943 16.1026 35.2828C16.0356 35.03 16.1736 34.7733 16.4123 34.7091C16.5356 34.6765 16.6608 34.7012 16.7624 34.7674L18.3828 35.5266C18.6511 34.9866 18.9834 34.3458 19.3543 33.6912L17.2565 32.4076C17.2082 32.378 17.1836 32.3612 17.1421 32.3207C17.0701 32.2496 17.0188 32.1549 17.0021 32.0453C16.9626 31.7866 17.1283 31.5476 17.3729 31.5101C17.4982 31.4914 17.6205 31.5289 17.7142 31.6069L19.8237 32.8983C19.9865 32.6327 20.1541 32.3711 20.3247 32.1183C20.5378 31.8034 20.7616 31.4884 20.9983 31.1774L19.302 29.5473C19.2655 29.5127 19.2458 29.488 19.2172 29.4446C19.162 29.3607 19.1324 29.257 19.1403 29.1464C19.157 28.8858 19.3701 28.6883 19.6166 28.7041C19.7438 28.713 19.8543 28.7772 19.9293 28.8719L21.5753 30.4546C22.1838 29.7319 22.8663 29.0428 23.6356 28.4257L22.2785 26.4747C22.24 26.4184 22.2213 26.3927 22.1956 26.3315C22.1562 26.2367 22.1473 26.1271 22.1759 26.0195C22.244 25.7667 22.4915 25.6157 22.7292 25.6808C22.8515 25.7144 22.9482 25.7993 23.0034 25.9079L24.3723 27.8777C24.7372 27.6259 25.1199 27.3919 25.5213 27.1777C25.9454 26.9516 26.3902 26.7482 26.8566 26.5734L26.185 24.5987C26.1554 24.5118 26.1318 24.4556 26.1239 24.3677C26.115 24.2689 26.1367 24.1653 26.1929 24.0725C26.327 23.8493 26.6071 23.7733 26.8182 23.9026C26.9267 23.9698 26.9957 24.0774 27.0184 24.1969L27.7295 26.2861C28.5086 26.0639 29.344 25.9178 30.2385 25.8655L30.1566 23.7703C30.1537 23.7002 30.1546 23.6568 30.1724 23.5857C30.1951 23.4968 30.2424 23.4129 30.3164 23.3458C30.5087 23.171 30.7987 23.1789 30.9644 23.3636C31.0492 23.4583 31.0837 23.5808 31.0728 23.7012L31.1567 25.8447C31.9319 25.8536 32.7504 25.9316 33.6124 26.0857L34.0898 23.9708C34.1046 23.9076 34.1144 23.8701 34.146 23.8108C34.1904 23.7279 34.2604 23.6558 34.3521 23.6084C34.5829 23.4899 34.862 23.5739 34.9744 23.795C35.0326 23.9096 35.0346 24.0379 34.9922 24.1515L34.5129 26.2742C35.1529 26.4332 35.8374 26.6662 36.5061 26.9289L37.2872 24.8821C37.3089 24.8258 37.3178 24.8031 37.3464 24.7557C37.4026 24.6619 37.4913 24.5859 37.6047 24.5464C37.8503 24.4625 38.1146 24.5849 38.1935 24.8209C38.235 24.9423 38.2192 25.0697 38.161 25.1753L37.3582 27.2803C38.0131 27.5637 38.6245 27.855 39.1275 28.1058L40.0299 26.4757C40.0861 26.373 40.1216 26.291 40.2084 26.213C40.2716 26.1567 40.3505 26.1153 40.4412 26.0985C40.6956 26.0501 40.9402 26.2091 40.9866 26.453C41.0103 26.5783 40.9767 26.7027 40.9047 26.7995L39.9491 28.5264C40.1394 28.6271 40.2824 28.7041 40.3662 28.7495L40.4323 28.7851C40.4767 28.8078 40.5171 28.8384 40.5536 28.8719C40.8041 29.1099 40.744 29.4792 40.454 29.9264C40.3041 30.1575 40.0822 30.4635 39.8159 30.8081C38.879 32.0216 37.3661 33.7662 36.5909 34.4248ZM33.7475 35.1001C34.6302 34.5956 35.3965 34.0673 35.9163 33.626C36.6412 33.0099 38.086 31.3393 38.9885 30.1693C39.1946 29.9017 39.3711 29.6628 39.5013 29.4722C38.4874 28.9361 35.9656 27.6595 34.0345 27.2369C33.1676 27.0473 32.349 26.9407 31.5768 26.9042C31.776 27.0088 31.9684 27.1243 32.1528 27.2517C33.3599 28.0801 34.2535 29.3715 34.5484 30.9286V30.9305C34.8334 32.4333 34.5079 33.9094 33.7475 35.1001ZM23.6888 29.7586C22.7095 30.6531 21.8879 31.676 21.1926 32.7048C20.2192 34.1453 19.3562 35.8919 18.9292 36.8023C20.234 36.9909 23.2726 37.3503 26.4858 37.1617C26.2274 37.0363 25.9789 36.8921 25.7422 36.7292C24.535 35.9008 23.6415 34.6094 23.3456 33.0524V33.0514C23.1277 31.8991 23.2687 30.7627 23.6888 29.7586ZM24.3723 32.8578V32.8598C24.6139 34.1325 25.3447 35.188 26.331 35.8653C27.3172 36.5416 28.5579 36.8408 29.8203 36.6028V36.6018L29.8243 36.6009C31.0847 36.3619 32.1291 35.6293 32.7988 34.639C33.4694 33.6467 33.7633 32.3968 33.5227 31.1231V31.1211C33.281 29.8484 32.5502 28.793 31.564 28.1156C30.5778 27.4393 29.3371 27.1401 28.0747 27.3791H28.0707C26.8103 27.619 25.7659 28.3506 25.0962 29.3409C24.4265 30.3342 24.1316 31.5852 24.3723 32.8578Z" fill="#1E2533"/>
<path d="M70.4144 22.9121L58.9805 24.7295L60.7958 36.1762L72.2298 34.3588L70.4144 22.9121Z" fill="#EDE4E6"/>
<path d="M65.6169 25.8178C65.8052 25.2244 66.0873 24.7959 66.6662 24.7959C67.2185 24.7959 67.5272 25.2382 67.7156 25.8178L70.5155 34.5735H69.7344L68.833 31.7567H64.4985L63.597 34.5735H62.8159L65.6169 25.8178ZM64.7016 31.0932H68.6308L67.0568 26.039C66.9759 25.7635 66.8684 25.487 66.6662 25.487C66.465 25.487 66.3565 25.7635 66.2757 26.039L64.7016 31.0932Z" fill="#1E2533" stroke="#1E2533" stroke-width="1.1999" stroke-miterlimit="10"/>
<path d="M74.1519 26.1207C74.1519 25.237 74.5552 24.9053 75.4172 24.9053H77.9213C79.6443 24.9053 80.1285 26.0792 80.1285 27.737C80.1285 29.45 79.7113 30.6368 78.0298 30.6368H77.4499V30.7059L80.1956 34.5733H79.2932L76.7496 30.9547C76.6421 30.8027 76.4932 30.6644 76.4932 30.4571V30.2912C76.4932 30.0839 76.6145 29.9733 76.8167 29.9733H77.9874C79.2794 29.9733 79.3474 28.9652 79.3474 27.736C79.3474 26.4376 79.1857 25.5678 77.7862 25.5678H75.4172C75.0138 25.5678 74.8787 25.706 74.8787 26.1197V34.5714H74.1519V26.1207Z" fill="#1E2533" stroke="#1E2533" stroke-width="1.1999" stroke-miterlimit="10"/>
<path d="M86.2935 34.5733V25.5688H83.1572V24.9053H90.1556V25.5688H87.0194V34.5733H86.2935Z" fill="#1E2533" stroke="#1E2533" stroke-width="1.1999" stroke-miterlimit="10"/>
<path d="M67.0834 49.2843C64.028 49.2843 63.4905 47.0746 63.4905 44.4512C63.4905 41.8269 63.9875 39.6172 67.2185 39.6172H69.3843V40.2807H67.2185C64.7953 40.2807 64.2706 41.8269 64.2706 44.4512C64.2706 47.0746 64.742 48.6218 67.0972 48.6218H69.5332V49.2853H67.0834V49.2843Z" fill="#1E2533" stroke="#1E2533" stroke-width="1.1999" stroke-miterlimit="10"/>
<path d="M75.5661 40.5278C75.7544 39.9344 76.0365 39.5059 76.6154 39.5059C77.1677 39.5059 77.4764 39.9482 77.6648 40.5278L80.4648 49.2835H79.6836L78.7822 46.4666H74.4477L73.5462 49.2835H72.7651L75.5661 40.5278ZM74.6508 45.8041H78.58L77.006 40.7499C76.9251 40.4744 76.8176 40.198 76.6154 40.198C76.4142 40.198 76.3058 40.4744 76.2249 40.7499L74.6508 45.8041Z" fill="#1E2533" stroke="#1E2533" stroke-width="1.1999" stroke-miterlimit="10"/>
<path d="M90.4525 48.3169C90.4525 48.9666 90.1694 49.3941 89.5915 49.3941C89.1615 49.3941 88.8785 49.242 88.6496 48.6901L85.3388 40.5278C85.2984 40.4172 85.2047 40.2928 85.0558 40.2928C84.9611 40.2928 84.827 40.3342 84.827 40.5692V49.2835H84.1001V40.4863C84.1001 39.5335 84.827 39.5059 84.9887 39.5059C85.5134 39.5059 85.7688 39.7813 85.9168 40.1545L89.2542 48.3584C89.3085 48.4966 89.4021 48.6072 89.5501 48.6072C89.7246 48.6072 89.7246 48.4551 89.7246 48.3584V39.6164H90.4515V48.3169H90.4525Z" fill="#1E2533" stroke="#1E2533" stroke-width="1.1999" stroke-miterlimit="10"/>
<path d="M97.4133 48.3868C97.4675 48.5803 97.5474 48.6494 97.6421 48.6494C97.7368 48.6494 97.8166 48.5803 97.8709 48.3868L100.427 39.6172H101.195L98.4616 48.76C98.3808 49.0364 98.1786 49.3948 97.6411 49.3948C97.1026 49.3948 96.9004 49.0354 96.8205 48.76L94.0876 39.6172H94.8549L97.4133 48.3868Z" fill="#1E2533" stroke="#1E2533" stroke-width="1.1999" stroke-miterlimit="10"/>
<path d="M106.285 40.5278C106.473 39.9344 106.755 39.5059 107.334 39.5059C107.886 39.5059 108.195 39.9482 108.384 40.5278L111.184 49.2835H110.402L109.501 46.4666H105.166L104.265 49.2835H103.484L106.285 40.5278ZM105.37 45.8041H109.299L107.725 40.7499C107.644 40.4744 107.536 40.198 107.334 40.198C107.133 40.198 107.025 40.4744 106.944 40.7499L105.37 45.8041Z" fill="#1E2533" stroke="#1E2533" stroke-width="1.1999" stroke-miterlimit="10"/>
<path d="M114.563 48.6218H118.264C118.829 48.6218 119.368 48.3177 119.368 46.965C119.368 46.3301 119.126 45.9984 118.157 45.404L116.017 44.078C115.089 43.5113 114.415 43.0146 114.415 41.7992C114.415 40.4179 115.062 39.6172 116.542 39.6172H119.705V40.2807H116.542C115.559 40.2807 115.196 40.6944 115.196 41.8002C115.196 42.4212 115.358 42.7668 116.179 43.3049L118.225 44.6309C119.234 45.2796 120.149 45.6943 120.149 46.965C120.149 48.1528 119.719 49.2853 118.265 49.2853H114.564V48.6218H114.563Z" fill="#1E2533" stroke="#1E2533" stroke-width="1.1999" stroke-miterlimit="10"/>
<path d="M68.6614 13.7989C68.7413 14.181 68.9277 14.2086 69.0076 14.2086C69.0875 14.2086 69.2739 14.181 69.3538 13.7989L71.8578 0.823242H78.0367L73.6952 17.0779C73.1626 19.0999 71.9367 20.1653 69.0076 20.1653C66.0775 20.1653 64.8525 19.0723 64.32 17.0779L59.9785 0.823242H66.1583L68.6614 13.7989Z" fill="#EB8E51"/>
<path d="M81.6602 19.9461V0.823242H87.6802V19.9461H81.6602Z" fill="#EB8E51"/>
<path d="M96.6016 2.92672C97.2673 0.823682 98.7329 0.604492 100.863 0.604492C102.994 0.604492 104.459 0.823682 105.125 2.92672L110.425 19.9465H104.085L103.153 16.013H98.5721L97.6401 19.9465H91.3005L96.6016 2.92672ZM99.3187 11.8049H102.409L101.104 6.805C101.077 6.6411 100.997 6.39526 100.864 6.39526C100.731 6.39526 100.651 6.6411 100.625 6.805L99.3187 11.8049Z" fill="#EB8E51"/>
<path d="M113.247 3.82772C113.247 1.91524 114.312 0.823242 116.177 0.823242H124.833C129.095 0.823242 129.627 3.22742 129.627 7.32489C129.627 10.3304 129.254 14.1277 126.058 14.1277H125.898V14.2373L130 19.9471H123.555L120.971 15.5218C120.385 14.5384 120.011 13.7466 120.011 12.6536V11.9713C120.011 10.3323 120.304 9.81299 121.902 9.81299H122.008C123.606 9.81299 123.872 9.29365 123.872 7.65466C123.872 6.01567 123.606 5.57828 122.008 5.57828H120.171C119.371 5.57828 118.998 5.96038 118.998 6.77988V19.9471H113.246V3.82772H113.247Z" fill="#EB8E51"/>
</svg>
