<svg width="20" height="20" viewBox="0 0 20 20" fill="none" xmlns="http://www.w3.org/2000/svg">
<path d="M0.833252 2.78809H2.58161C3.06178 2.79086 3.48723 3.09513 3.63961 3.5453L6.44597 11.3865H8.09611H14.3375L15.8333 5.83912H4.45346" stroke="white" stroke-width="1.25" stroke-miterlimit="10" stroke-linejoin="round"/>
<path d="M6.72715 17.2112C7.50211 17.2112 8.13034 16.5903 8.13034 15.8243C8.13034 15.0584 7.50211 14.4375 6.72715 14.4375C5.9522 14.4375 5.32397 15.0584 5.32397 15.8243C5.32397 16.5903 5.9522 17.2112 6.72715 17.2112Z" fill="white"/>
<path d="M14.3036 17.2112C15.0785 17.2112 15.7068 16.5903 15.7068 15.8243C15.7068 15.0584 15.0785 14.4375 14.3036 14.4375C13.5286 14.4375 12.9004 15.0584 12.9004 15.8243C12.9004 16.5903 13.5286 17.2112 14.3036 17.2112Z" fill="white"/>
</svg>
