<svg width="25" height="25" viewBox="0 0 25 25" fill="none" xmlns="http://www.w3.org/2000/svg">
<path d="M24.7093 18.3996C24.6372 16.8084 23.9593 15.3322 22.8006 14.2429C22.7576 14.2024 22.6152 14.0748 22.5893 14.0518C21.8841 13.4241 20.9772 13.1187 20.0356 13.1915C19.9939 13.1948 19.9526 13.1996 19.9113 13.2043L3.5424 0.220261C3.11985 -0.115005 2.50787 -0.0618676 2.14924 0.341017C1.79084 0.743728 1.80896 1.3576 2.19055 1.73851L16.873 16.3925C16.8088 17.3798 17.166 18.3859 17.9277 19.1112C18.3757 19.5378 18.9285 19.836 19.5264 19.9738C20.7975 20.2667 21.7627 21.1951 22.0452 22.3966C22.0703 22.5033 22.0918 22.6115 22.1105 22.72C19.7988 23.7395 16.8972 24.299 13.9052 24.299C12.9396 24.299 11.9905 24.2423 11.0705 24.1321C9.07495 23.8432 7.24827 23.2038 5.77959 22.2619C3.75893 20.9662 2.64969 19.2399 2.64969 17.4009C2.64969 15.005 4.14174 13.1344 7.33926 11.5326C7.51124 11.4464 7.59034 11.244 7.52088 11.0647C7.44963 10.8806 7.24683 10.7838 7.05897 10.8442C5.1139 11.4704 3.47236 12.358 2.29579 13.4221C0.979995 14.6121 0.284424 15.9907 0.284424 17.409C0.284424 19.4744 1.72934 21.3995 4.35302 22.8297C6.20941 23.8416 8.5062 24.5231 11.0038 24.8209C11.828 24.9392 12.6774 24.9999 13.5387 24.9999V24.9885C13.6607 24.9903 13.7828 24.9913 13.9053 24.9913C16.9386 24.9913 19.8733 24.3935 22.2664 23.4074C22.5536 23.289 23.0351 22.8782 23.1757 22.7203C24.2369 21.5282 24.7814 19.9937 24.7093 18.3996ZM0.976764 17.409C0.976764 15.8403 1.99537 14.3416 3.77999 13.1412C2.54751 14.3763 1.95573 15.775 1.95573 17.4008C1.95573 19.0789 2.75066 20.6596 4.22338 21.9572C2.12507 20.6914 0.976764 19.0899 0.976764 17.409ZM2.66642 0.80125C2.78123 0.672302 2.97705 0.655455 3.11223 0.762652L17.5646 12.2265C17.0613 12.4405 16.6178 12.7719 16.2603 13.2063C16.0098 13.5108 15.8152 13.8567 15.6833 14.2268L2.67963 1.24844C2.55755 1.12659 2.55172 0.930141 2.66642 0.80125ZM16.2415 14.784C16.3345 14.3663 16.5237 13.9757 16.7949 13.6462C17.1654 13.196 17.6513 12.8839 18.2071 12.7362L19.0593 13.4122C18.5135 13.6225 18.0278 13.9709 17.6438 14.4376C17.3611 14.781 17.1564 15.1658 17.0279 15.5689L16.2415 14.784ZM22.7103 22.201C22.356 20.7588 21.199 19.6487 19.682 19.2991C19.2048 19.1891 18.7633 18.9508 18.4051 18.6097C17.368 17.6222 17.2685 15.9829 18.1783 14.8775C18.6588 14.2937 19.3375 13.9401 20.0891 13.8818C20.1622 13.8762 20.235 13.8733 20.3074 13.8733C20.9805 13.8733 21.6204 14.1162 22.1289 14.5688C22.1572 14.5942 22.289 14.7123 22.3263 14.7473C23.3531 15.7126 23.9538 17.0208 24.0176 18.4309C24.0804 19.8175 23.6167 21.1531 22.7103 22.201Z" fill="url(#paint0_linear_696_9137)"/>
<defs>
<linearGradient id="paint0_linear_696_9137" x1="12.5" y1="0" x2="12.5" y2="24.9999" gradientUnits="userSpaceOnUse">
<stop stop-color="#FA7846"/>
<stop offset="1" stop-color="#91665E"/>
</linearGradient>
</defs>
</svg>
